# reference file, note the extra spaces
v -1 -1  1
v -1  1  1
v -1 -1 -1
v -1  1 -1
v  1 -1  1
v  1  1  1
v  1 -1 -1
v  1  1 -1
vn -1  0  0
vn  0  0 -1
vn  1  0  0
vn  0  0  1
vn  0 -1  0
vn  0  1  0
vt 0.625 0
vt 0.375 0.25
vt 0.375 0
vt 0.625 0.25
vt 0.375 0.50
vt 0.625 0.50
vt 0.375 0.75
vt 0.625 0.75
vt 0.375 1
vt 0.125 0.75
vt 0.125 0.50
vt 0.875 0.50
vt 0.625 1
vt 0.875 0.75
s 1
usemtl base
f 2/1/1 3/2/1 1/3/1
f 4/4/2 7/5/2 3/2/2
f 6/8/4 1/9/4 5/7/4
f 7/5/5 1/10/5 3/11/5
f 4/12/6 6/8/6 8/6/6
f 2/1/1 4/4/1 3/2/1
f 4/4/2 8/6/2 7/5/2
f 6/8/4 2/13/4 1/9/4
f 7/5/5 5/7/5 1/10/5
f 4/12/6 2/14/6 6/8/6
s 0
usemtl Material
f 8/6/3 5/7/3 7/5/3
f 8/6/3 6/8/3 5/7/3
