# half-edge export
v -1 -1 -1
v -1 -1 1
v -1 1 -1
v -1 1 1
v 1 -1 -1
v 1 -1 1
v 1 1 -1
v 1 1 1
vn -0.57735 -0.57735 -0.57735
vn -0.57735 -0.57735 0.57735
vn -0.57735 0.57735 -0.57735
vn -0.57735 0.57735 0.57735
vn 0 -0.707107 -0.707107
vn 0 -0.707107 0.707107
vn 0 0.707107 -0.707107
vn 0 0.707107 0.707107
vt 0.125 0.5 0
vt 0.125 0.75 0
vt 0.375 0 0
vt 0.375 0.25 0
vt 0.375 0.5 0
vt 0.375 0.75 0
vt 0.375 1 0
vt 0.625 0 0
vt 0.625 0.25 0
vt 0.625 0.5 0
vt 0.625 0.75 0
vt 0.625 1 0
vt 0.875 0.5 0
vt 0.875 0.75 0
s 1
usemtl base
f 4/8/4 1/4/1 2/3/2
f 3/9/3 5/5/5 1/4/1
f 8/11/8 2/7/2 6/6/6
f 5/5/5 2/2/2 1/1/1
f 3/13/3 8/11/8 7/10/7
f 4/8/4 3/9/3 1/4/1
f 3/9/3 7/10/7 5/5/5
f 8/11/8 4/12/4 2/7/2
f 5/5/5 6/6/6 2/2/2
f 3/13/3 4/14/4 8/11/8
