# half-edge export
v -1.25 -0 0
v -1 -0 -0.25
v -1 -0 0.25
v -0.883884 -0.883883 0
v -0.883883 0.883884 0
v -0.75 -0 0
v -0.707107 -0.707106 -0.25
v -0.707107 -0.707106 0.25
v -0.707107 0.707107 -0.25
v -0.707107 0.707107 0.25
v -0.53033 -0.53033 0
v -0.53033 0.53033 0
v 0 -1.25 0
v 0 -1 -0.25
v 0 -1 0.25
v 0 -0.75 0
v 0 0.75 0
v 0 1 -0.25
v 0 1 0.25
v 0 1.25 0
v 0.53033 -0.53033 0
v 0.53033 0.53033 0
v 0.707107 -0.707107 -0.25
v 0.707107 -0.707107 0.25
v 0.707107 0.707107 -0.25
v 0.707107 0.707107 0.25
v 0.75 -0 0
v 0.883884 -0.883883 0
v 0.883883 0.883884 0
v 1 -0 -0.25
v 1 -0 0.25
v 1.25 -0 0
vn -0.678598 -0.281084 -0.678599
vn -0.678598 -0.281084 0.678599
vn -0.678598 0.281084 -0.678599
vn -0.678598 0.281084 0.678599
vn -0.281084 -0.678598 -0.678599
vn -0.281084 -0.678598 0.678599
vn -0.281084 0.678598 -0.678599
vn -0.281084 0.678598 0.678599
vn 0.281085 -0.678599 -0.678598
vn 0.281085 -0.678599 0.678598
vn 0.281084 0.678598 -0.678598
vn 0.281084 0.678598 0.678598
vn 0.678598 -0.281084 -0.678598
vn 0.678598 -0.281084 0.678598
vn 0.678599 0.281085 -0.678598
vn 0.678599 0.281085 0.678598
vt 0 0 0
vt 0 0.25 0
vt 0 0.5 0
vt 0 0.75 0
vt 0 1 0
vt 0.125 0 0
vt 0.125 0.25 0
vt 0.125 0.5 0
vt 0.125 0.75 0
vt 0.125 1 0
vt 0.25 0 0
vt 0.25 0.25 0
vt 0.25 0.5 0
vt 0.25 0.75 0
vt 0.25 1 0
vt 0.375 0 0
vt 0.375 0.25 0
vt 0.375 0.5 0
vt 0.375 0.75 0
vt 0.375 1 0
vt 0.5 0 0
vt 0.5 0.25 0
vt 0.5 0.5 0
vt 0.5 0.75 0
vt 0.5 1 0
vt 0.625 0 0
vt 0.625 0.25 0
vt 0.625 0.5 0
vt 0.625 0.75 0
vt 0.625 1 0
vt 0.75 0 0
vt 0.75 0.25 0
vt 0.75 0.5 0
vt 0.75 0.75 0
vt 0.75 1 0
vt 0.875 0 0
vt 0.875 0.25 0
vt 0.875 0.5 0
vt 0.875 0.75 0
vt 0.875 1 0
vt 1 0 0
vt 1 0.25 0
vt 1 0.5 0
vt 1 0.75 0
vt 1 1 0
s 0
usemtl default_mesh_material
f 13/23/10 28/28/10 24/29/10 15/24/10
f 15/24/8 24/29/8 21/30/8 16/25/8
f 16/21/7 21/26/7 23/27/7 14/22/7
f 14/22/9 23/27/9 28/28/9 13/23/9
f 28/28/14 32/33/14 31/34/14 24/29/14
f 24/29/4 31/34/4 27/35/4 21/30/4
f 21/26/3 27/31/3 30/32/3 23/27/3
f 23/27/13 30/32/13 32/33/13 28/28/13
f 32/33/16 29/38/16 26/39/16 31/34/16
f 31/34/2 26/39/2 22/40/2 27/35/2
f 27/31/1 22/36/1 25/37/1 30/32/1
f 30/32/15 25/37/15 29/38/15 32/33/15
f 29/38/12 20/43/12 19/44/12 26/39/12
f 26/39/6 19/44/6 17/45/6 22/40/6
f 22/36/5 17/41/5 18/42/5 25/37/5
f 25/37/11 18/42/11 20/43/11 29/38/11
f 20/3/8 5/8/8 10/9/8 19/4/8
f 19/4/10 10/9/10 12/10/10 17/5/10
f 17/1/9 12/6/9 9/7/9 18/2/9
f 18/2/7 9/7/7 5/8/7 20/3/7
f 5/8/4 1/13/4 3/14/4 10/9/4
f 10/9/14 3/14/14 6/15/14 12/10/14
f 12/6/13 6/11/13 2/12/13 9/7/13
f 9/7/3 2/12/3 1/13/3 5/8/3
f 1/13/2 4/18/2 8/19/2 3/14/2
f 3/14/16 8/19/16 11/20/16 6/15/16
f 6/11/15 11/16/15 7/17/15 2/12/15
f 2/12/1 7/17/1 4/18/1 1/13/1
f 4/18/6 13/23/6 15/24/6 8/19/6
f 8/19/12 15/24/12 16/25/12 11/20/12
f 11/16/11 16/21/11 14/22/11 7/17/11
f 7/17/5 14/22/5 13/23/5 4/18/5
